<svg xmlns="http://www.w3.org/2000/svg" viewBox="0 0 64 64" role="img" aria-label="Tier S+">
  <defs>
    <linearGradient id="g" x1="0%" y1="0%" x2="100%" y2="100%">
      <stop offset="0%" stop-color="#ffd54f"/>
      <stop offset="55%" stop-color="#e87820"/>
      <stop offset="100%" stop-color="#9c27b0"/>
    </linearGradient>
  </defs>
  <rect width="64" height="64" rx="12" fill="#1a1208"/>
  <path fill="url(#g)" d="M12 42c2-8 8-14 16-16 4-6 12-8 18-4 2 6-2 12-8 14 2 4 0 10-6 12-8 2-16 0-20-6z"/>
  <circle cx="44" cy="26" r="2.5" fill="#fff8e1"/>
  <path fill="url(#g)" d="M18 44c-4 2-6 6-4 10 6-2 10-6 12-10-4-2-6-2-8 0z"/>
  <text x="32" y="58" text-anchor="middle" font-family="system-ui,sans-serif" font-size="11" font-weight="800" fill="#ffd54f">S+</text>
</svg>
